<mxfile host="app.diagrams.net" modified="2023-05-23T14:08:59.421Z" agent="Mozilla/5.0 (Windows NT 10.0; Win64; x64) AppleWebKit/537.36 (KHTML, like Gecko) Chrome/113.0.0.0 Safari/537.36" etag="MAG-SaL9Tml24OLEGJwG" version="21.3.3" type="device" pages="2">
  <diagram name="Trang-1" id="PvBFdXMxZLclg0OPSZqO">
    <mxGraphModel dx="1370" dy="804" grid="1" gridSize="10" guides="1" tooltips="1" connect="1" arrows="1" fold="1" page="1" pageScale="1" pageWidth="827" pageHeight="1169" math="0" shadow="0">
      <root>
        <mxCell id="0" />
        <mxCell id="1" parent="0" />
        <mxCell id="aaNmKUSJOgoQdvMXNbWH-4" style="edgeStyle=orthogonalEdgeStyle;rounded=0;orthogonalLoop=1;jettySize=auto;html=1;exitX=1;exitY=0.5;exitDx=0;exitDy=0;exitPerimeter=0;entryX=0;entryY=0.5;entryDx=0;entryDy=0;entryPerimeter=0;endArrow=none;endFill=0;dashed=1;" edge="1" parent="1" source="aaNmKUSJOgoQdvMXNbWH-1" target="aaNmKUSJOgoQdvMXNbWH-3">
          <mxGeometry relative="1" as="geometry" />
        </mxCell>
        <mxCell id="aaNmKUSJOgoQdvMXNbWH-11" style="edgeStyle=orthogonalEdgeStyle;rounded=0;orthogonalLoop=1;jettySize=auto;html=1;exitX=0.5;exitY=1;exitDx=0;exitDy=0;exitPerimeter=0;entryX=0.5;entryY=0;entryDx=0;entryDy=0;" edge="1" parent="1" source="aaNmKUSJOgoQdvMXNbWH-1" target="aaNmKUSJOgoQdvMXNbWH-7">
          <mxGeometry relative="1" as="geometry" />
        </mxCell>
        <mxCell id="aaNmKUSJOgoQdvMXNbWH-1" value="Начало" style="strokeWidth=2;html=1;shape=mxgraph.flowchart.terminator;whiteSpace=wrap;" vertex="1" parent="1">
          <mxGeometry x="350" y="40" width="130" height="60" as="geometry" />
        </mxCell>
        <mxCell id="aaNmKUSJOgoQdvMXNbWH-2" value="Конец" style="strokeWidth=2;html=1;shape=mxgraph.flowchart.terminator;whiteSpace=wrap;" vertex="1" parent="1">
          <mxGeometry x="364" y="640" width="100" height="60" as="geometry" />
        </mxCell>
        <mxCell id="aaNmKUSJOgoQdvMXNbWH-3" value="SimpleSearch&lt;br&gt;Вход: словарь и ключ&lt;br&gt;Выход: значение по заданному ключу." style="strokeWidth=2;html=1;shape=mxgraph.flowchart.annotation_1;align=left;pointerEvents=1;" vertex="1" parent="1">
          <mxGeometry x="500" y="20" width="50" height="100" as="geometry" />
        </mxCell>
        <mxCell id="aaNmKUSJOgoQdvMXNbWH-13" style="edgeStyle=orthogonalEdgeStyle;rounded=0;orthogonalLoop=1;jettySize=auto;html=1;exitX=1;exitY=0.5;exitDx=0;exitDy=0;entryX=0.5;entryY=0;entryDx=0;entryDy=0;" edge="1" parent="1" source="aaNmKUSJOgoQdvMXNbWH-5" target="aaNmKUSJOgoQdvMXNbWH-10">
          <mxGeometry relative="1" as="geometry" />
        </mxCell>
        <mxCell id="aaNmKUSJOgoQdvMXNbWH-14" value="&lt;font style=&quot;font-size: 14px;&quot;&gt;Да&lt;/font&gt;" style="edgeLabel;html=1;align=center;verticalAlign=middle;resizable=0;points=[];" vertex="1" connectable="0" parent="aaNmKUSJOgoQdvMXNbWH-13">
          <mxGeometry x="-0.0744" y="-4" relative="1" as="geometry">
            <mxPoint as="offset" />
          </mxGeometry>
        </mxCell>
        <mxCell id="aaNmKUSJOgoQdvMXNbWH-19" style="edgeStyle=orthogonalEdgeStyle;rounded=0;orthogonalLoop=1;jettySize=auto;html=1;exitX=0;exitY=0.5;exitDx=0;exitDy=0;entryX=0.5;entryY=1;entryDx=0;entryDy=0;" edge="1" parent="1" source="aaNmKUSJOgoQdvMXNbWH-5" target="aaNmKUSJOgoQdvMXNbWH-8">
          <mxGeometry relative="1" as="geometry">
            <Array as="points">
              <mxPoint x="250" y="270" />
              <mxPoint x="250" y="350" />
              <mxPoint x="414" y="350" />
            </Array>
          </mxGeometry>
        </mxCell>
        <mxCell id="aaNmKUSJOgoQdvMXNbWH-5" value="Текущий ключ равен исходному" style="shape=rhombus;perimeter=rhombusPerimeter;whiteSpace=wrap;html=1;align=center;" vertex="1" parent="1">
          <mxGeometry x="334.5" y="220" width="161" height="100" as="geometry" />
        </mxCell>
        <mxCell id="aaNmKUSJOgoQdvMXNbWH-12" style="edgeStyle=orthogonalEdgeStyle;rounded=0;orthogonalLoop=1;jettySize=auto;html=1;exitX=0.5;exitY=1;exitDx=0;exitDy=0;entryX=0.5;entryY=0;entryDx=0;entryDy=0;" edge="1" parent="1" source="aaNmKUSJOgoQdvMXNbWH-7" target="aaNmKUSJOgoQdvMXNbWH-5">
          <mxGeometry relative="1" as="geometry" />
        </mxCell>
        <mxCell id="aaNmKUSJOgoQdvMXNbWH-7" value="Цикл по всем ключам словаря" style="shape=loopLimit;whiteSpace=wrap;html=1;" vertex="1" parent="1">
          <mxGeometry x="350" y="130" width="130" height="60" as="geometry" />
        </mxCell>
        <mxCell id="aaNmKUSJOgoQdvMXNbWH-18" style="edgeStyle=orthogonalEdgeStyle;rounded=0;orthogonalLoop=1;jettySize=auto;html=1;exitX=0.5;exitY=0;exitDx=0;exitDy=0;entryX=0.5;entryY=0;entryDx=0;entryDy=0;" edge="1" parent="1" source="aaNmKUSJOgoQdvMXNbWH-8" target="aaNmKUSJOgoQdvMXNbWH-9">
          <mxGeometry relative="1" as="geometry" />
        </mxCell>
        <mxCell id="aaNmKUSJOgoQdvMXNbWH-8" value="Конец цикла по всем ключам словаря" style="shape=loopLimit;whiteSpace=wrap;html=1;direction=west;" vertex="1" parent="1">
          <mxGeometry x="349" y="380" width="130" height="80" as="geometry" />
        </mxCell>
        <mxCell id="aaNmKUSJOgoQdvMXNbWH-17" style="edgeStyle=orthogonalEdgeStyle;rounded=0;orthogonalLoop=1;jettySize=auto;html=1;exitX=0.5;exitY=1;exitDx=0;exitDy=0;entryX=0.5;entryY=0;entryDx=0;entryDy=0;entryPerimeter=0;" edge="1" parent="1" source="aaNmKUSJOgoQdvMXNbWH-9" target="aaNmKUSJOgoQdvMXNbWH-2">
          <mxGeometry relative="1" as="geometry" />
        </mxCell>
        <mxCell id="aaNmKUSJOgoQdvMXNbWH-9" value="Вернуть признак, что ключ не найден" style="rounded=0;whiteSpace=wrap;html=1;" vertex="1" parent="1">
          <mxGeometry x="350" y="510" width="129" height="60" as="geometry" />
        </mxCell>
        <mxCell id="aaNmKUSJOgoQdvMXNbWH-15" style="edgeStyle=orthogonalEdgeStyle;rounded=0;orthogonalLoop=1;jettySize=auto;html=1;exitX=0.5;exitY=1;exitDx=0;exitDy=0;entryX=0.5;entryY=0;entryDx=0;entryDy=0;entryPerimeter=0;" edge="1" parent="1" source="aaNmKUSJOgoQdvMXNbWH-10" target="aaNmKUSJOgoQdvMXNbWH-2">
          <mxGeometry relative="1" as="geometry">
            <Array as="points">
              <mxPoint x="610" y="600" />
              <mxPoint x="414" y="600" />
            </Array>
          </mxGeometry>
        </mxCell>
        <mxCell id="aaNmKUSJOgoQdvMXNbWH-10" value="Вернуть значение текущего ключа" style="rounded=0;whiteSpace=wrap;html=1;" vertex="1" parent="1">
          <mxGeometry x="550" y="310" width="120" height="60" as="geometry" />
        </mxCell>
      </root>
    </mxGraphModel>
  </diagram>
  <diagram id="0O2VqrStWUHYUOadRlw1" name="Trang-2">
    <mxGraphModel dx="1370" dy="804" grid="1" gridSize="10" guides="1" tooltips="1" connect="1" arrows="1" fold="1" page="1" pageScale="1" pageWidth="827" pageHeight="1169" math="0" shadow="0">
      <root>
        <mxCell id="0" />
        <mxCell id="1" parent="0" />
        <mxCell id="-MHLSilbAZ5LQFzX3L7_-1" style="edgeStyle=orthogonalEdgeStyle;rounded=0;orthogonalLoop=1;jettySize=auto;html=1;exitX=1;exitY=0.5;exitDx=0;exitDy=0;exitPerimeter=0;entryX=0;entryY=0.5;entryDx=0;entryDy=0;entryPerimeter=0;endArrow=none;endFill=0;dashed=1;" edge="1" parent="1" source="-MHLSilbAZ5LQFzX3L7_-3" target="-MHLSilbAZ5LQFzX3L7_-5">
          <mxGeometry relative="1" as="geometry" />
        </mxCell>
        <mxCell id="-MHLSilbAZ5LQFzX3L7_-39" style="edgeStyle=orthogonalEdgeStyle;rounded=0;orthogonalLoop=1;jettySize=auto;html=1;exitX=0.5;exitY=1;exitDx=0;exitDy=0;exitPerimeter=0;entryX=0.5;entryY=0;entryDx=0;entryDy=0;" edge="1" parent="1" source="-MHLSilbAZ5LQFzX3L7_-3" target="-MHLSilbAZ5LQFzX3L7_-18">
          <mxGeometry relative="1" as="geometry" />
        </mxCell>
        <mxCell id="-MHLSilbAZ5LQFzX3L7_-3" value="Начало" style="strokeWidth=2;html=1;shape=mxgraph.flowchart.terminator;whiteSpace=wrap;" vertex="1" parent="1">
          <mxGeometry x="320" y="40" width="160" height="60" as="geometry" />
        </mxCell>
        <mxCell id="-MHLSilbAZ5LQFzX3L7_-4" value="Конец" style="strokeWidth=2;html=1;shape=mxgraph.flowchart.terminator;whiteSpace=wrap;" vertex="1" parent="1">
          <mxGeometry x="319.5" y="1060" width="160" height="60" as="geometry" />
        </mxCell>
        <mxCell id="-MHLSilbAZ5LQFzX3L7_-5" value="BinarySearch&lt;br&gt;Вход: словарь и ключ&lt;br&gt;Выход: значение по заданному ключу." style="strokeWidth=2;html=1;shape=mxgraph.flowchart.annotation_1;align=left;pointerEvents=1;" vertex="1" parent="1">
          <mxGeometry x="500" y="20" width="50" height="100" as="geometry" />
        </mxCell>
        <mxCell id="-MHLSilbAZ5LQFzX3L7_-6" style="edgeStyle=orthogonalEdgeStyle;rounded=0;orthogonalLoop=1;jettySize=auto;html=1;exitX=1;exitY=0.5;exitDx=0;exitDy=0;entryX=0.5;entryY=0;entryDx=0;entryDy=0;" edge="1" parent="1" source="-MHLSilbAZ5LQFzX3L7_-9" target="-MHLSilbAZ5LQFzX3L7_-17">
          <mxGeometry relative="1" as="geometry" />
        </mxCell>
        <mxCell id="-MHLSilbAZ5LQFzX3L7_-7" value="&lt;font style=&quot;font-size: 14px;&quot;&gt;Да&lt;/font&gt;" style="edgeLabel;html=1;align=center;verticalAlign=middle;resizable=0;points=[];" vertex="1" connectable="0" parent="-MHLSilbAZ5LQFzX3L7_-6">
          <mxGeometry x="-0.0744" y="-4" relative="1" as="geometry">
            <mxPoint as="offset" />
          </mxGeometry>
        </mxCell>
        <mxCell id="-MHLSilbAZ5LQFzX3L7_-25" style="edgeStyle=orthogonalEdgeStyle;rounded=0;orthogonalLoop=1;jettySize=auto;html=1;exitX=0.5;exitY=1;exitDx=0;exitDy=0;entryX=0.5;entryY=0;entryDx=0;entryDy=0;" edge="1" parent="1" source="-MHLSilbAZ5LQFzX3L7_-9" target="-MHLSilbAZ5LQFzX3L7_-22">
          <mxGeometry relative="1" as="geometry" />
        </mxCell>
        <mxCell id="-MHLSilbAZ5LQFzX3L7_-9" value="Средий ключ равен исходному" style="shape=rhombus;perimeter=rhombusPerimeter;whiteSpace=wrap;html=1;align=center;" vertex="1" parent="1">
          <mxGeometry x="319.5" y="420" width="161" height="100" as="geometry" />
        </mxCell>
        <mxCell id="-MHLSilbAZ5LQFzX3L7_-41" style="edgeStyle=orthogonalEdgeStyle;rounded=0;orthogonalLoop=1;jettySize=auto;html=1;exitX=0.5;exitY=1;exitDx=0;exitDy=0;entryX=0.5;entryY=0;entryDx=0;entryDy=0;" edge="1" parent="1" source="-MHLSilbAZ5LQFzX3L7_-11" target="-MHLSilbAZ5LQFzX3L7_-20">
          <mxGeometry relative="1" as="geometry" />
        </mxCell>
        <mxCell id="-MHLSilbAZ5LQFzX3L7_-11" value="Пока L &amp;lt;= R" style="shape=loopLimit;whiteSpace=wrap;html=1;" vertex="1" parent="1">
          <mxGeometry x="320" y="230" width="160" height="60" as="geometry" />
        </mxCell>
        <mxCell id="-MHLSilbAZ5LQFzX3L7_-23" style="edgeStyle=orthogonalEdgeStyle;rounded=0;orthogonalLoop=1;jettySize=auto;html=1;exitX=0.5;exitY=0;exitDx=0;exitDy=0;entryX=0.5;entryY=0;entryDx=0;entryDy=0;entryPerimeter=0;" edge="1" parent="1" source="-MHLSilbAZ5LQFzX3L7_-13" target="-MHLSilbAZ5LQFzX3L7_-4">
          <mxGeometry relative="1" as="geometry" />
        </mxCell>
        <mxCell id="-MHLSilbAZ5LQFzX3L7_-13" value="Пока&amp;nbsp; L &amp;lt;= R" style="shape=loopLimit;whiteSpace=wrap;html=1;direction=west;" vertex="1" parent="1">
          <mxGeometry x="319.5" y="920" width="160" height="80" as="geometry" />
        </mxCell>
        <mxCell id="-MHLSilbAZ5LQFzX3L7_-24" style="edgeStyle=orthogonalEdgeStyle;rounded=0;orthogonalLoop=1;jettySize=auto;html=1;exitX=0.5;exitY=1;exitDx=0;exitDy=0;entryX=0.5;entryY=0;entryDx=0;entryDy=0;entryPerimeter=0;" edge="1" parent="1" source="-MHLSilbAZ5LQFzX3L7_-17" target="-MHLSilbAZ5LQFzX3L7_-4">
          <mxGeometry relative="1" as="geometry">
            <Array as="points">
              <mxPoint x="610" y="640" />
              <mxPoint x="730" y="640" />
              <mxPoint x="730" y="1040" />
              <mxPoint x="400" y="1040" />
            </Array>
          </mxGeometry>
        </mxCell>
        <mxCell id="-MHLSilbAZ5LQFzX3L7_-17" value="Вернуть значение текущего ключа" style="rounded=0;whiteSpace=wrap;html=1;" vertex="1" parent="1">
          <mxGeometry x="550" y="525" width="120" height="60" as="geometry" />
        </mxCell>
        <mxCell id="-MHLSilbAZ5LQFzX3L7_-40" style="edgeStyle=orthogonalEdgeStyle;rounded=0;orthogonalLoop=1;jettySize=auto;html=1;exitX=0.5;exitY=1;exitDx=0;exitDy=0;entryX=0.5;entryY=0;entryDx=0;entryDy=0;" edge="1" parent="1" source="-MHLSilbAZ5LQFzX3L7_-18" target="-MHLSilbAZ5LQFzX3L7_-11">
          <mxGeometry relative="1" as="geometry" />
        </mxCell>
        <mxCell id="-MHLSilbAZ5LQFzX3L7_-18" value="L = 0&lt;br&gt;R = длина массива ключей" style="rounded=0;whiteSpace=wrap;html=1;" vertex="1" parent="1">
          <mxGeometry x="320" y="140" width="160" height="60" as="geometry" />
        </mxCell>
        <mxCell id="-MHLSilbAZ5LQFzX3L7_-42" style="edgeStyle=orthogonalEdgeStyle;rounded=0;orthogonalLoop=1;jettySize=auto;html=1;exitX=0.5;exitY=1;exitDx=0;exitDy=0;entryX=0.5;entryY=0;entryDx=0;entryDy=0;" edge="1" parent="1" source="-MHLSilbAZ5LQFzX3L7_-20" target="-MHLSilbAZ5LQFzX3L7_-9">
          <mxGeometry relative="1" as="geometry" />
        </mxCell>
        <mxCell id="-MHLSilbAZ5LQFzX3L7_-20" value="middle = (L + R) / 2" style="rounded=0;whiteSpace=wrap;html=1;" vertex="1" parent="1">
          <mxGeometry x="320" y="330" width="160" height="60" as="geometry" />
        </mxCell>
        <mxCell id="-MHLSilbAZ5LQFzX3L7_-32" style="edgeStyle=orthogonalEdgeStyle;rounded=0;orthogonalLoop=1;jettySize=auto;html=1;exitX=1;exitY=0.5;exitDx=0;exitDy=0;entryX=0.5;entryY=0;entryDx=0;entryDy=0;" edge="1" parent="1" source="-MHLSilbAZ5LQFzX3L7_-21" target="-MHLSilbAZ5LQFzX3L7_-30">
          <mxGeometry relative="1" as="geometry" />
        </mxCell>
        <mxCell id="-MHLSilbAZ5LQFzX3L7_-38" value="&lt;font style=&quot;font-size: 14px;&quot;&gt;Да&lt;/font&gt;" style="edgeLabel;html=1;align=center;verticalAlign=middle;resizable=0;points=[];" vertex="1" connectable="0" parent="-MHLSilbAZ5LQFzX3L7_-32">
          <mxGeometry x="0.1" y="2" relative="1" as="geometry">
            <mxPoint as="offset" />
          </mxGeometry>
        </mxCell>
        <mxCell id="-MHLSilbAZ5LQFzX3L7_-34" style="edgeStyle=orthogonalEdgeStyle;rounded=0;orthogonalLoop=1;jettySize=auto;html=1;exitX=0;exitY=0.5;exitDx=0;exitDy=0;entryX=0.5;entryY=1;entryDx=0;entryDy=0;" edge="1" parent="1" source="-MHLSilbAZ5LQFzX3L7_-21" target="-MHLSilbAZ5LQFzX3L7_-13">
          <mxGeometry relative="1" as="geometry">
            <Array as="points">
              <mxPoint x="290" y="790" />
              <mxPoint x="290" y="900" />
              <mxPoint x="400" y="900" />
            </Array>
          </mxGeometry>
        </mxCell>
        <mxCell id="-MHLSilbAZ5LQFzX3L7_-21" value="Средий ключ больше исходному" style="shape=rhombus;perimeter=rhombusPerimeter;whiteSpace=wrap;html=1;align=center;" vertex="1" parent="1">
          <mxGeometry x="319.5" y="740" width="161" height="100" as="geometry" />
        </mxCell>
        <mxCell id="-MHLSilbAZ5LQFzX3L7_-31" style="edgeStyle=orthogonalEdgeStyle;rounded=0;orthogonalLoop=1;jettySize=auto;html=1;exitX=1;exitY=0.5;exitDx=0;exitDy=0;entryX=0.5;entryY=0;entryDx=0;entryDy=0;" edge="1" parent="1" source="-MHLSilbAZ5LQFzX3L7_-22" target="-MHLSilbAZ5LQFzX3L7_-28">
          <mxGeometry relative="1" as="geometry" />
        </mxCell>
        <mxCell id="-MHLSilbAZ5LQFzX3L7_-36" value="&lt;font style=&quot;font-size: 14px;&quot;&gt;Да&lt;/font&gt;" style="edgeLabel;html=1;align=center;verticalAlign=middle;resizable=0;points=[];" vertex="1" connectable="0" parent="-MHLSilbAZ5LQFzX3L7_-31">
          <mxGeometry x="0.04" y="1" relative="1" as="geometry">
            <mxPoint as="offset" />
          </mxGeometry>
        </mxCell>
        <mxCell id="-MHLSilbAZ5LQFzX3L7_-35" style="edgeStyle=orthogonalEdgeStyle;rounded=0;orthogonalLoop=1;jettySize=auto;html=1;exitX=0;exitY=0.5;exitDx=0;exitDy=0;entryX=0.5;entryY=0;entryDx=0;entryDy=0;" edge="1" parent="1" source="-MHLSilbAZ5LQFzX3L7_-22" target="-MHLSilbAZ5LQFzX3L7_-21">
          <mxGeometry relative="1" as="geometry">
            <Array as="points">
              <mxPoint x="300" y="620" />
              <mxPoint x="300" y="720" />
              <mxPoint x="400" y="720" />
            </Array>
          </mxGeometry>
        </mxCell>
        <mxCell id="-MHLSilbAZ5LQFzX3L7_-22" value="Средий ключ меньше исходному" style="shape=rhombus;perimeter=rhombusPerimeter;whiteSpace=wrap;html=1;align=center;" vertex="1" parent="1">
          <mxGeometry x="320" y="570" width="161" height="100" as="geometry" />
        </mxCell>
        <mxCell id="-MHLSilbAZ5LQFzX3L7_-37" style="edgeStyle=orthogonalEdgeStyle;rounded=0;orthogonalLoop=1;jettySize=auto;html=1;exitX=0.5;exitY=1;exitDx=0;exitDy=0;entryX=0.5;entryY=0;entryDx=0;entryDy=0;" edge="1" parent="1" source="-MHLSilbAZ5LQFzX3L7_-28" target="-MHLSilbAZ5LQFzX3L7_-21">
          <mxGeometry relative="1" as="geometry" />
        </mxCell>
        <mxCell id="-MHLSilbAZ5LQFzX3L7_-28" value="L = middle + 1" style="rounded=0;whiteSpace=wrap;html=1;" vertex="1" parent="1">
          <mxGeometry x="479.5" y="640" width="120" height="60" as="geometry" />
        </mxCell>
        <mxCell id="-MHLSilbAZ5LQFzX3L7_-33" style="edgeStyle=orthogonalEdgeStyle;rounded=0;orthogonalLoop=1;jettySize=auto;html=1;exitX=0.5;exitY=1;exitDx=0;exitDy=0;entryX=0.5;entryY=1;entryDx=0;entryDy=0;" edge="1" parent="1" source="-MHLSilbAZ5LQFzX3L7_-30" target="-MHLSilbAZ5LQFzX3L7_-13">
          <mxGeometry relative="1" as="geometry" />
        </mxCell>
        <mxCell id="-MHLSilbAZ5LQFzX3L7_-30" value="R = middle - 1" style="rounded=0;whiteSpace=wrap;html=1;" vertex="1" parent="1">
          <mxGeometry x="480.5" y="820" width="120" height="60" as="geometry" />
        </mxCell>
      </root>
    </mxGraphModel>
  </diagram>
</mxfile>
